HIERARCHY
ROOT Bip001_Pelvis
{
  OFFSET 34.4345 95.6767 -26.8758
  CHANNELS 6 Xposition Yposition Zposition Zrotation Xrotation Yrotation
  JOINT Bip001_Spine
  {
    OFFSET 1.4188e-005 10.2191 -0.0116013
    CHANNELS 3 Zrotation Xrotation Yrotation
    JOINT Bip001_L_Thigh
    {
      OFFSET 11.0458 -10.2192 0.0116197
      CHANNELS 3 Zrotation Xrotation Yrotation
      JOINT Bip001_L_Calf
      {
        OFFSET -0.707118 -44.0221 0.360014
        CHANNELS 3 Zrotation Xrotation Yrotation
        JOINT Bip001_L_Foot
        {
          OFFSET -0.651902 -40.5938 -3.56146
          CHANNELS 3 Zrotation Xrotation Yrotation
          JOINT Bip001_L_Toe0
          {
            OFFSET 0.0530839 -10.2181 13.1504
            CHANNELS 3 Zrotation Xrotation Yrotation
            End Site
            {
              OFFSET -1.02532e-005 0 7.55606
            }
          }
        }
      }
    }
    JOINT Bip001_R_Thigh
    {
      OFFSET -11.0458 -10.2191 0.0115893
      CHANNELS 3 Zrotation Xrotation Yrotation
      JOINT Bip001_R_Calf
      {
        OFFSET 0.706994 -44.0221 0.35984
        CHANNELS 3 Zrotation Xrotation Yrotation
        JOINT Bip001_R_Foot
        {
          OFFSET 0.651786 -40.5938 -3.5613
          CHANNELS 3 Zrotation Xrotation Yrotation
          JOINT Bip001_R_Toe0
          {
            OFFSET -0.0531479 -10.2181 13.1504
            CHANNELS 3 Zrotation Xrotation Yrotation
            End Site
            {
              OFFSET -1.02894e-005 0 7.55606
            }
          }
        }
      }
    }
    JOINT Bip001_Spine1
    {
      OFFSET 1.87041e-005 14.5736 1.08638
      CHANNELS 3 Zrotation Xrotation Yrotation
      JOINT Bip001_Spine2
      {
        OFFSET 2.24614e-005 14.5058 -1.69078
        CHANNELS 3 Zrotation Xrotation Yrotation
        JOINT Bip001_Neck
        {
          OFFSET 2.20278e-005 15.3945 -0.489414
          CHANNELS 3 Zrotation Xrotation Yrotation
          JOINT Bip001_L_Clavicle
          {
            OFFSET 6.06036 -0.000579998 0.00836775
            CHANNELS 3 Zrotation Xrotation Yrotation
            JOINT Bip001_L_UpperArm
            {
              OFFSET 11.5509 -0.0600302 0.00193952
              CHANNELS 3 Zrotation Xrotation Yrotation
              JOINT Bip001_L_Forearm
              {
                OFFSET 25.9523 0.0806089 -2.15551
                CHANNELS 3 Zrotation Xrotation Yrotation
                JOINT Bip001_L_Hand
                {
                  OFFSET 32.2475 0.153767 1.63968
                  CHANNELS 3 Zrotation Xrotation Yrotation
                  JOINT Bip001_L_Finger0
                  {
                    OFFSET 6.04639 -2.20976 5.90322
                    CHANNELS 3 Zrotation Xrotation Yrotation
                    End Site
                    {
                      OFFSET 4.22375 -1.43895 0.606485
                    }
                  }
                  JOINT Bip001_L_Finger1
                  {
                    OFFSET 11.0826 -0.704819 -0.198153
                    CHANNELS 3 Zrotation Xrotation Yrotation
                    End Site
                    {
                      OFFSET 6.20027 -0.397518 -0.0787166
                    }
                  }
                }
              }
            }
          }
          JOINT Bip001_R_Clavicle
          {
            OFFSET -6.06037 -0.000563197 0.00835105
            CHANNELS 3 Zrotation Xrotation Yrotation
            JOINT Bip001_R_UpperArm
            {
              OFFSET -11.5509 -0.0599978 0.00190698
              CHANNELS 3 Zrotation Xrotation Yrotation
              JOINT Bip001_R_Forearm
              {
                OFFSET -25.9523 0.0806822 -2.15589
                CHANNELS 3 Zrotation Xrotation Yrotation
                JOINT Bip001_R_Hand
                {
                  OFFSET -32.2475 0.153859 1.63989
                  CHANNELS 3 Zrotation Xrotation Yrotation
                  JOINT Bip001_R_Finger0
                  {
                    OFFSET -6.04641 -2.20976 5.90317
                    CHANNELS 3 Zrotation Xrotation Yrotation
                    End Site
                    {
                      OFFSET -4.22376 -1.43895 0.60647
                    }
                  }
                  JOINT Bip001_R_Finger1
                  {
                    OFFSET -11.0826 -0.704794 -0.198182
                    CHANNELS 3 Zrotation Xrotation Yrotation
                    End Site
                    {
                      OFFSET -6.20028 -0.397504 -0.0787333
                    }
                  }
                }
              }
            }
          }
          JOINT Bip001_Head
          {
            OFFSET 1.09673e-005 11.2744 2.05948
            CHANNELS 3 Zrotation Xrotation Yrotation
            End Site
            {
              OFFSET 2.89576e-005 20.8808 -2.77728e-005
            }
          }
        }
      }
    }
  }
}
MOTION
Frames:	10
Frame Time:	0.04
33.385 95.9889 -28.7105 0.255294 0.0671176 4.11747 -0.329572 2.01427 -0.095936 5.19017 -3.84895 6.02895 -0.633593 7.12326 -8.54903 2.57915 -3.77188 -0.0353257 0.794038 -3.99982 -0.381304 -3.00402 -2.72671 -1.19238 0.228591 9.59237 -0.104307 -6.21611 -8.55529 -0.291631 2.275 -7.63816 2.30177 -0.656778 4.02905 -0.179635 -0.657463 4.02905 -0.180002 0.397829 -8.57367 -3.32516 -24.3195 8.55275 3.04777 -55.5039 38.3454 2.85391 14.6888 -3.76349 -23.4973 8.22601 1.57642 -3.54127 6.36111e-015 3.18055e-015 -0 4.77083e-015 0 -0 16.8539 17.7906 31.6483 62.5059 -54.8163 32.8359 -40.602 -9.70394 114.932 -40.4754 4.93488 3.1075 -5.74153e-031 -9.54166e-015 -3.44767e-015 4.09993e-016 -9.54167e-015 -2.28602e-015 -0.597204 -5.15334 -3.02456 
33.3343 95.9868 -28.7286 0.23425 0.242117 4.55089 -0.330009 1.97138 -0.0846204 5.21962 -4.11412 5.94365 -0.596729 7.18418 -8.91234 2.52774 -3.76512 -0.035229 0.789555 -4.0183 -0.339479 -2.96282 -2.76743 -1.23113 0.296754 9.5289 -0.19834 -6.30807 -8.50841 -0.626523 2.28172 -7.70005 2.33428 -0.658476 3.94309 -0.1582 -0.659187 3.94312 -0.158157 0.34672 -8.67321 -3.47862 -24.3667 8.56566 3.28606 -55.826 38.3958 3.18925 14.984 -3.2755 -23.703 8.28486 1.58003 -3.63803 4.77083e-015 0 -3.18055e-015 4.77083e-015 -6.36111e-015 -0 16.01 17.9428 33.0389 63.3469 -52.3045 35.8507 -41.2961 -10.7054 114.24 -41.3894 5.20986 3.07102 7.95139e-016 0 5.96354e-016 1.19271e-015 3.18056e-015 2.98177e-015 -0.57673 -4.95065 -3.17853 
33.2662 95.9789 -28.7081 0.178199 0.38266 5.03528 -0.325209 1.96902 -0.148379 5.30967 -4.39294 5.98728 -0.601883 7.28984 -9.44457 2.82436 -3.57701 -0.0355554 0.87428 -4.19336 -0.403281 -2.85552 -2.73066 -1.28695 0.318178 9.35386 -0.269539 -6.38407 -8.47674 -0.889172 2.29072 -7.71597 2.32608 -0.647579 3.93895 -0.285643 -0.647076 3.93894 -0.285641 -0.0246983 -8.95963 -3.42722 -23.9286 8.73496 3.85195 -55.9541 38.9277 3.12572 14.9741 -3.36127 -23.788 8.16818 1.61203 -3.44544 4.77083e-015 -9.54166e-015 -0 6.36111e-015 -3.18056e-015 -0 15.2654 18.2356 34.7382 62.7218 -49.1794 38.0924 -42.8425 -11.5653 112.369 -41.8591 5.29546 2.88409 7.95139e-016 -3.18055e-015 -1.19271e-015 -2.64834e-031 -6.36111e-015 -2.38542e-015 -0.150131 -4.77578 -3.30309 
33.2016 95.9706 -28.6993 0.0806564 0.571184 5.48393 -0.303386 1.9214 -0.0777304 5.45806 -4.76467 6.03794 -0.651378 7.57074 -10.0067 2.83995 -3.66262 -0.0368537 0.838952 -4.19239 -0.365481 -2.73511 -2.7298 -1.45157 0.342396 9.21034 -0.359798 -6.46813 -8.42365 -1.15834 2.29192 -7.72822 2.31885 -0.604079 3.84442 -0.145008 -0.604156 3.84442 -0.145224 0.344704 -8.64653 -3.80966 -24.5104 8.41266 3.54883 -56.0024 39.0865 3.58872 14.9378 -3.34416 -23.799 8.20432 1.79264 -3.46953 3.18055e-015 0 6.36111e-015 4.77083e-015 -3.18056e-015 6.36111e-015 13.9361 17.8997 36.1243 60.5799 -45.0369 40.0748 -44.5084 -11.4972 109.091 -41.266 5.53629 2.90964 7.95139e-016 3.18055e-015 1.59028e-015 1.59028e-015 6.36111e-015 1.98785e-015 -0.548576 -4.98721 -3.5273 
33.1471 95.9681 -28.6888 -0.00790627 0.728241 5.78356 -0.287121 1.92298 -0.0945371 5.57927 -5.04459 6.115 -0.667267 7.70321 -10.3669 2.7636 -3.72638 -0.0322796 0.785248 -4.16089 -0.314905 -2.60748 -2.78978 -1.33028 0.359964 9.08756 -0.441633 -6.5536 -8.32997 -1.48554 2.29349 -7.74215 2.31828 -0.572395 3.84641 -0.176656 -0.571862 3.84641 -0.177912 0.103037 -9.031 -3.82117 -24.1746 8.7237 3.918 -56.1852 39.429 3.59138 15.1222 -3.04588 -23.6338 8.14605 1.81318 -3.56759 -1.59028e-015 -3.18055e-015 -3.18055e-015 -3.53113e-031 -6.36111e-015 -3.18055e-015 12.7729 18.1181 37.7782 57.9106 -40.3803 42.9266 -46.6606 -10.0317 103.735 -39.9836 5.85511 2.93541 -7.95139e-016 -9.54166e-015 -1.98785e-016 -1.19271e-015 -9.54167e-015 -7.95139e-016 -0.315876 -4.6675 -3.62862 
33.0799 95.9728 -28.6867 -0.157742 0.890899 6.02831 -0.251978 1.8868 -0.0705303 5.77837 -5.35086 6.29404 -0.69912 7.95714 -10.7373 2.55579 -3.92092 -0.0253908 0.732246 -4.02403 -0.293607 -2.42031 -2.78835 -1.1808 0.351731 8.85267 -0.507225 -6.63914 -8.16717 -1.811 2.29149 -7.72301 2.30472 -0.50173 3.77387 -0.133095 -0.501947 3.77388 -0.132553 0.361731 -8.70673 -3.98432 -24.5143 8.39277 3.74226 -56.2415 39.2414 3.95236 15.064 -2.94161 -23.6091 8.13145 1.72206 -3.52804 -3.18055e-015 6.36111e-015 -3.18055e-015 -3.18055e-015 3.18056e-015 -0 10.9979 17.4026 39.0012 54.8127 -34.7101 46.8477 -49.0354 -5.5074 95.2442 -37.9108 6.08916 3.95592 7.95139e-016 3.18055e-015 4.96962e-016 9.93923e-016 6.36111e-015 3.97569e-016 -0.582035 -4.93588 -3.67259 
33.0253 95.9852 -28.6625 -0.251867 1.01731 6.23973 -0.24727 1.83566 -0.0848467 5.94236 -5.50174 6.32452 -0.75163 8.04494 -10.9135 2.35827 -4.05208 -0.0182522 0.630449 -3.85809 -0.20839 -2.26876 -2.74788 -1.24469 0.316463 8.67584 -0.493362 -6.67288 -8.04765 -1.95755 2.29339 -7.72169 2.31764 -0.492686 3.67165 -0.161787 -0.491968 3.67166 -0.161767 0.557794 -8.14337 -4.0426 -24.6914 7.83146 3.57967 -56.3392 39.1259 4.32868 15.0747 -2.84915 -23.4865 8.00544 1.75986 -3.46772 3.18055e-015 9.54166e-015 -3.18055e-015 5.29669e-031 9.54167e-015 -3.18055e-015 8.70351 16.2012 40.5784 41.6436 -23.4272 46.9864 -53.7038 -2.93255 75.4312 -41.3082 8.99956 3.93348 7.95139e-016 6.36111e-015 -3.97569e-016 7.95139e-016 6.36111e-015 -3.97569e-016 -0.541271 -5.07228 -3.69945 
32.9631 96.0023 -28.6345 -0.359097 1.09865 6.4158 -0.249644 1.8058 -0.0557935 6.09772 -5.60453 5.99192 -0.789695 8.07553 -10.7254 2.07408 -4.18138 -0.0110452 0.530702 -3.68261 -0.135343 -2.08957 -2.69163 -1.2276 0.283084 8.48889 -0.451027 -6.72163 -7.88134 -2.19249 2.28659 -7.68616 2.31611 -0.501322 3.61183 -0.103698 -0.498141 3.61184 -0.103742 0.328586 -8.06232 -4.2503 -24.8259 7.57422 4.09801 -55.7662 39.6093 4.07398 15.3692 -2.43524 -23.0308 7.67062 1.68784 -3.44136 1.59028e-015 -3.18055e-015 -0 4.77083e-015 -9.54167e-015 3.18055e-015 7.269 15.7438 42.5988 47.5384 -24.3034 52.4089 -56.6347 -4.35166 71.2346 -36.4811 7.90246 7.80703 3.97569e-016 -3.18055e-015 -0 7.95139e-016 -3.18056e-015 -3.97569e-016 0.0168954 -4.99619 -4.03807 
32.8544 96.0185 -28.6392 -0.636482 1.35001 6.89455 -0.269575 1.71403 -0.0324647 6.46412 -6.10139 5.51796 -0.825629 8.46206 -10.4545 1.63116 -4.48935 0.00348403 0.51537 -3.43474 -0.180203 -1.71699 -2.63131 -0.923162 0.343797 8.06949 -0.491255 -6.88299 -7.53866 -2.82113 2.27698 -7.63771 2.27806 -0.53405 3.42819 -0.0580825 -0.536264 3.42819 -0.0577256 1.53766 -7.78113 -4.79733 -26.1646 6.86612 4.77495 -55.1782 39.4312 3.83972 15.651 -1.94761 -22.8644 7.50543 1.61255 -3.44854 -1.59028e-015 3.18055e-015 -0 -1.59028e-015 6.36111e-015 -0 7.05934 16.0363 43.3532 48.1765 -28.0442 50.3483 -53.7973 -4.12706 76.5353 -40.6421 6.19245 6.69729 -1.98785e-016 0 -3.97569e-016 9.93923e-017 0 -9.93923e-017 -0.903774 -5.25466 -4.13917 
32.8643 96.0315 -28.5532 -0.488485 1.3846 7.3535 -0.339536 1.61461 -0.0822989 6.25313 -6.00121 5.69305 -0.501032 8.31798 -10.6735 0.971586 -4.67924 0.00791555 0.576459 -3.08054 -0.307592 -1.83117 -2.467 -1.29794 0.408717 8.17329 -0.42282 -6.95547 -7.63772 -2.8792 2.2686 -7.61179 2.24418 -0.675524 3.22973 -0.155321 -0.675525 3.22973 -0.155314 2.56532 -7.26436 -5.07024 -26.6579 6.17381 4.87501 -55.8279 38.3528 4.11303 15.4929 -1.77737 -22.6789 8.44162 1.50289 -3.32386 3.18055e-015 6.36111e-015 -0 1.76556e-031 3.18056e-015 -3.18055e-015 6.96766 15.7552 42.6309 48.2664 -28.3585 49.1409 -54.7456 -3.76122 78.8954 -41.5922 6.37541 5.12501 2.85753e-016 -3.18055e-015 -3.44767e-016 4.34841e-017 -6.36111e-015 -6.4605e-016 -1.82507 -5.18035 -4.01598 
